inDegrees=no
num_controls=7
num_derivatives=13
num_iterations=115
num_multipliers=7
num_parameters=0
num_slacks=7
num_states=26
objective=0.444035
objective_accelerations=0.039017
objective_balance=0.009966
objective_effort=0.049329
objective_height=0.344227
objective_ligament=0.001497
solver_duration=1500.552082
status=Solve_Succeeded
success=true
DataType=double
version=3
OpenSimVersion=4.5
endheader
time	/jointset/ground_pelvis/pelvis_tilt/value	/jointset/ground_pelvis/pelvis_tx/value	/jointset/ground_pelvis/pelvis_ty/value	/jointset/hip_l/hip_flexion_l/value	/jointset/hip_l/hip_adduction_l/value	/jointset/hip_l/hip_rotation_l/value	/jointset/back/lumbar_extension/value	/jointset/patellofemoral_l/patellar_flexion_l/value	/jointset/knee_l/knee_flexion_l/value	/jointset/knee_l/knee_adduction_l/value	/jointset/knee_l/knee_rotation_l/value	/jointset/ankle_l/ankle_angle_l/value	/jointset/subtalar_l/subtalar_angle_l/value	/jointset/ground_pelvis/pelvis_tilt/speed	/jointset/ground_pelvis/pelvis_tx/speed	/jointset/ground_pelvis/pelvis_ty/speed	/jointset/hip_l/hip_flexion_l/speed	/jointset/hip_l/hip_adduction_l/speed	/jointset/hip_l/hip_rotation_l/speed	/jointset/back/lumbar_extension/speed	/jointset/patellofemoral_l/patellar_flexion_l/speed	/jointset/knee_l/knee_flexion_l/speed	/jointset/knee_l/knee_adduction_l/speed	/jointset/knee_l/knee_rotation_l/speed	/jointset/ankle_l/ankle_angle_l/speed	/jointset/subtalar_l/subtalar_angle_l/speed	/forceset/tau_hip_flexion_l	/forceset/tau_hip_adduction_l	/forceset/tau_hip_rotation_l	/forceset/tau_knee_flexion_l	/forceset/tau_ankle_angle_l	/forceset/tau_subtalar_angle_l	/forceset/tau_lumbar_extension	lambda_cid13_p0	lambda_cid13_p1	lambda_cid13_p2	lambda_cid13_p3	lambda_cid13_p4	lambda_cid13_p5	lambda_cid14_p0	/jointset/ground_pelvis/pelvis_tilt/accel	/jointset/ground_pelvis/pelvis_tx/accel	/jointset/ground_pelvis/pelvis_ty/accel	/jointset/hip_l/hip_flexion_l/accel	/jointset/hip_l/hip_adduction_l/accel	/jointset/hip_l/hip_rotation_l/accel	/jointset/back/lumbar_extension/accel	/jointset/patellofemoral_l/patellar_flexion_l/accel	/jointset/knee_l/knee_flexion_l/accel	/jointset/knee_l/knee_adduction_l/accel	/jointset/knee_l/knee_rotation_l/accel	/jointset/ankle_l/ankle_angle_l/accel	/jointset/subtalar_l/subtalar_angle_l/accel	gamma_cid13_p0	gamma_cid13_p1	gamma_cid13_p2	gamma_cid13_p3	gamma_cid13_p4	gamma_cid13_p5	gamma_cid14_p0
0.5	-0.516698906564056	-0.1031841990613655	0.7766490237908286	1.281744085698963	-0.1793816192004766	0.03849781353333652	-0.3409182453329153	0.5298986953976622	0.5298986953976643	0.009324127403577905	-0.03989175810656825	-0.04632126067788531	0.0630291150102651	-1.007600725330011	-0.2953848948218572	-0.4503801964194626	2.369947020733175	-0.2778331328017275	0.04182360651074886	-0.6052524284953643	1.388117685227547	1.388117685227419	-0.4666506307430308	0.4335983749087035	0.05678138663280687	-0.2681062624163767	-0.2865196880434969	0.001068032284855107	-0.001165632694288192	-0.1496402517159889	0.1587989513447127	0.04746709913447817	0.2453932398698951	13.81682979656427	-17.119558902047	-4.429021968974733	-5.493815675141906	-611.3733143229693	-73.3390007026305	-33.39725670404294	0.7181390641472049	0.7903742966371712	-0.1736249259238016	-1.811290463757662	-0.1182950490592711	0.3101907078865525	1.97108887200645	-0.6810263075503797	-0.6810263075503846	0.1875991158621227	0.2994321507363621	0.2116982384010007	-0.08575474628400929	-4.143042830014336e-07	7.846129029404612e-07	6.209969585083227e-07	1.60794496422164e-07	5.60591409983845e-08	1.031025036462629e-07	-2.084618855719231e-07
0.51	-0.5267372920152493	-0.106098308201697	0.7721374590793273	1.305349728589244	-0.1821650563265063	0.03893328546388072	-0.3468722007356297	0.5437442288524724	0.5437442288524715	0.004667651353472552	-0.03554329176118469	-0.04574302003016054	0.06034451516434827	-0.9999455066545589	-0.2874198323644108	-0.4518425358241219	2.350886944685305	-0.2788165659781704	0.04525142325183774	-0.5854899188604888	1.380794391512791	1.380794391512828	-0.4645901129151081	0.4360437304145441	0.05883095916993607	-0.2687856849000002	-0.296270485104584	0.001244702494595586	-0.001672406070540692	-0.1494553169044379	0.1580729538464458	0.04748016206397346	0.2525131767129096	13.2875269801784	-17.26590562772092	-4.139148195348343	-5.307174880194818	-615.941658440557	-73.30734728056338	-32.8872580143012	0.8087737099955413	0.8021674227802701	-0.1189945363719281	-1.997625939497063	-0.08287989509644562	0.3561959189881752	1.986141987286239	-0.7871325898628676	-0.7871325898382685	0.2236193652949301	0.2093632915220429	0.1961774359220092	-0.05501348700132983	-3.879925853637464e-07	7.184783151833673e-07	5.778064955131007e-07	1.437438177956615e-07	6.382905747020516e-08	9.028613390572823e-08	-1.956672687263429e-07
0.52	-0.5366952131915376	-0.1089322476769578	0.7676139797560524	1.328755918766208	-0.1849572302729318	0.03940245931418882	-0.3526270690463836	0.557510699032851	0.5575106990328467	3.3448731452878e-05	-0.03117191665254205	-0.0451453655221538	0.0576539255960752	-0.9915078703490556	-0.2793509618076984	-0.4527631187741743	2.330056478069618	-0.2795804968809997	0.04856399046365169	-0.5654350101032863	1.372305030341046	1.372305030341246	-0.4621959451256822	0.4381801275609506	0.06066415868919043	-0.2693042068876161	-0.3060212821656699	0.001421372704335493	-0.002179179446816442	-0.1492703820928869	0.1573469563481792	0.04749322499346841	0.259633113555925	12.74862488860361	-17.40374314883495	-3.858429967913729	-5.088645053661994	-620.624656256231	-73.23105751159385	-32.35082972029644	0.8746225901573581	0.8111359164903503	-0.06527363500240557	-2.165368577321017	-0.074394594336552	0.2871408020315667	2.029568696471872	-0.9142397989484162	-0.9142397989483597	0.254329108162757	0.2376404788495362	0.1684236348260166	-0.05357464708247234	-3.627993334596573e-07	6.581647523481931e-07	5.317829334292822e-07	1.30391510722394e-07	6.749548469393754e-08	7.965323980847402e-08	-1.823994188539444e-07
0.53	-0.5465649454646583	-0.1116850578789348	0.7630839918424815	1.351945200966251	-0.187755931586654	0.03990384362661104	-0.3581800123638411	0.5711865716342127	0.571186571634211	-0.004575062272930345	-0.02678045890859244	-0.0445304345026347	0.05495898397108988	-0.9823121973000691	-0.2712010324913631	-0.4531442734016363	2.307520451691427	-0.2801211127315318	0.05168639601213792	-0.545119211007874	1.362685526092146	1.36268552609213	-0.4594504548808987	0.4400604163044998	0.06228812374536048	-0.2696540852713991	-0.3155427544296188	0.001641213950644783	-0.002630468389167701	-0.1490878930405699	0.1566349410569791	0.04755655038553514	0.2665100994690218	12.22498214735769	-17.55683555740485	-3.585841479330751	-4.877351048463859	-625.1587094023491	-73.15081762632613	-31.79050359732549	0.960937521185609	0.8184530292568656	-0.01099391161814649	-2.339705589955352	-0.03824191496621394	0.3208421401482978	2.037751873131509	-1.013365227649323	-1.013365227681952	0.2931738456995106	0.1555302822583637	0.1542568822131763	-0.02134107872901203	-3.359030881355013e-07	5.96626625372327e-07	4.814467771976629e-07	1.165430558561296e-07	6.981846676142806e-08	6.83772004396362e-08	-1.682047835356841e-07
0.54	-0.5563389414355054	-0.1143560624697381	0.7585529008756361	1.374900725718134	-0.1905589084257919	0.04043566233629524	-0.3635287644189332	0.5847607372951286	0.5847607372951256	-0.009154415402254106	-0.0223717368351792	-0.04390028904431371	0.05226141423332614	-0.9723606098944301	-0.2629898395729672	-0.4529837294290962	2.283304988437747	-0.2804356019642504	0.05465086991627025	-0.5245967576302371	1.351963642251703	1.351963642251468	-0.4563643701135808	0.4416329934540803	0.06370704644955758	-0.2698298294432945	-0.3250642266935679	0.001861055196952033	-0.003081757331535831	-0.1489054039882527	0.1559229257657793	0.04761987577760001	0.2733870853821181	11.69140203978184	-17.70144698156133	-3.322304253793999	-4.634988097647962	-629.8147540776237	-73.02691627115576	-31.20885123237206	1.02580546148788	0.8233886369024562	0.04306608499801913	-2.501255952418702	-0.02916927077382206	0.2555544731607901	2.0708995529168	-1.134715717257278	-1.134715717257279	0.3224480126696259	0.1760981600558249	0.1274151644314112	-0.018747804704981	-3.071226798785054e-07	5.337336614748448e-07	4.263392402067747e-07	1.021456715167624e-07	7.065508397520412e-08	5.638959608947185e-08	-1.529847685751941e-07
